<svg width="32.265594" height="39.711548" viewBox="0 0 32.2656 39.7115" fill="none" xmlns="http://www.w3.org/2000/svg" xmlns:xlink="http://www.w3.org/1999/xlink">
	<desc>
			Created with Pixso.
	</desc>
	<defs/>
	<path id="Vector" d="M17.37 12.4C17.37 12.08 17.24 11.76 17.01 11.53C16.77 11.29 16.46 11.16 16.13 11.16C15.8 11.16 15.48 11.29 15.25 11.53C15.02 11.76 14.89 12.08 14.89 12.4L14.89 19.85L9.92 19.85C9.59 19.85 9.28 19.98 9.05 20.21C8.81 20.45 8.68 20.76 8.68 21.09C8.68 21.42 8.81 21.74 9.05 21.97C9.28 22.2 9.59 22.33 9.92 22.33L16.13 22.33C16.46 22.33 16.77 22.2 17.01 21.97C17.24 21.74 17.37 21.42 17.37 21.09L17.37 12.4Z" fill="#919191" fill-opacity="1.000000" fill-rule="nonzero"/>
	<path id="Vector" d="M4.96 4.13L4.96 5.08C3.56 5.37 2.3 6.13 1.39 7.24C0.49 8.35 -0.01 9.73 0 11.16L0 28.54C-0.01 29.97 0.49 31.35 1.39 32.46C2.3 33.57 3.56 34.33 4.96 34.62L4.96 35.57C4.96 37.85 6.81 39.71 9.1 39.71L20.68 39.71C22.96 39.71 24.81 37.86 24.81 35.57L24.81 34.62C26.22 34.33 27.48 33.57 28.38 32.46C29.29 31.35 29.78 29.97 29.78 28.54L29.78 19.85L31.02 19.85C31.35 19.85 31.66 19.72 31.9 19.49C32.13 19.25 32.26 18.94 32.26 18.61L32.26 13.65C32.26 13.32 32.13 13 31.9 12.77C31.66 12.54 31.35 12.4 31.02 12.4L29.78 12.4L29.78 11.16C29.78 9.73 29.29 8.35 28.38 7.24C27.48 6.13 26.22 5.37 24.81 5.08L24.81 4.13C24.81 1.85 22.96 0 20.68 0L9.1 0C6.81 0 4.96 1.85 4.96 4.13ZM6.2 7.44L23.57 7.44C24.56 7.44 25.51 7.83 26.21 8.53C26.9 9.23 27.3 10.18 27.3 11.16L27.3 28.54C27.3 29.53 26.9 30.47 26.21 31.17C25.51 31.87 24.56 32.26 23.57 32.26L6.2 32.26C5.21 32.26 4.27 31.87 3.57 31.17C2.87 30.47 2.48 29.53 2.48 28.54L2.48 11.16C2.48 10.18 2.87 9.23 3.57 8.53C4.27 7.83 5.21 7.44 6.2 7.44Z" fill="#919191" fill-opacity="1.000000" fill-rule="nonzero"/>
</svg>
